PathFileType	4	(X/Y/Z)	/Users/visionmauri/1_8_1_f_Sports2D/1_8_1_f_Sports2D_px_person00.trc
DataRate	CameraRate	NumFrames	NumMarkers	Units	OrigDataRate	OrigDataStartFrame	OrigNumFrames
30.0	30.0	8	22	m	30.0	223	358
Frame#	Time	Hip			RHip			RKnee			RAnkle			RBigToe			RSmallToe			RHeel			LHip			LKnee			LAnkle			LBigToe			LSmallToe			LHeel			Neck			Head			Nose			RShoulder			RElbow			RWrist			LShoulder			LElbow			LWrist			
		X1	Y1	Z1	X2	Y2	Z2	X3	Y3	Z3	X4	Y4	Z4	X5	Y5	Z5	X6	Y6	Z6	X7	Y7	Z7	X8	Y8	Z8	X9	Y9	Z9	X10	Y10	Z10	X11	Y11	Z11	X12	Y12	Z12	X13	Y13	Z13	X14	Y14	Z14	X15	Y15	Z15	X16	Y16	Z16	X17	Y17	Z17	X18	Y18	Z18	X19	Y19	Z19	X20	Y20	Z20	X21	Y21	Z21	X22	Y22	Z22
223	7.454154995331466	492.72074000451073	859.7367510697843	0.0	444.69699659686853	860.26375705213	0.0	441.4703040673276	1044.2292787907256	0.0	447.01032962326593	1224.6853880071917	0.0	442.676742266358	1284.8544080426288	0.0	419.046282833009	1277.5067741663847	0.0	453.20799760688993	1248.2959632242864	0.0	539.7128720034618	865.1478787115765	0.0	533.031345618431	1041.8741995705548	0.0	524.6301520231412	1219.1354786751124	0.0	508.4681075445427	1276.0213757324393	0.0	532.5171298789523	1271.1136350031254	0.0	518.2782756679086	1242.7944390858383	0.0	520.5303274078427	604.3295964052693	0.0	525.5801918541107	478.2687210584888	0.0	520.7328006679377	565.945097257557	0.0	432.34603464155435	628.3483006739142	0.0	390.71478810476776	737.3829947507224	0.0	353.6416350269794	835.9878384247077	0.0	605.1400550699727	637.1714041427814	0.0	632.0971077650197	761.5564155502732	0.0	640.2225576040955	769.9629338141914	0.0
224	7.487581699346405	492.3599939364159	859.4964762066813	0.0	444.24037626945056	859.7903612425714	0.0	441.7427106803551	1043.4616778491868	0.0	446.11265740772507	1228.7714159785758	0.0	444.3633603331061	1289.6443557091457	0.0	419.9551031253366	1282.9585781181775	0.0	452.466527189941	1251.8290532581548	0.0	539.6733310052052	864.8357983167114	0.0	533.2193378089896	1043.206512177786	0.0	524.0446060187782	1218.6089086713778	0.0	509.2433396204546	1275.3798975691352	0.0	532.4407911021151	1270.3574126122598	0.0	518.0821322943198	1242.6010903324718	0.0	520.2881238494938	604.617385129402	0.0	524.2515269488115	478.2586676419032	0.0	519.3928960435594	566.691868329354	0.0	432.5437439874561	628.193849095606	0.0	390.29205893903827	737.2118062291574	0.0	353.27610433835895	835.9588906435971	0.0	605.8554841395669	637.2197931345667	0.0	632.2327584938342	760.9062867088985	0.0	639.5749679382335	770.4467267546788	0.0
225	7.5210084033613445	492.15394320467595	859.8160843519328	0.0	443.5559357571302	860.4538850253884	0.0	441.57700828726354	1044.2472111649818	0.0	444.7159053762038	1233.252097286365	0.0	446.6081617368933	1295.0872653895706	0.0	420.992118357771	1288.2082891569867	0.0	450.91177129080944	1256.9419121297215	0.0	539.8114952726273	865.483782730957	0.0	533.1487721441703	1045.1142950485516	0.0	524.4896652123432	1218.6611976323597	0.0	509.600591594546	1275.4231184168607	0.0	532.6733943105608	1269.7452997061755	0.0	518.7257962086077	1242.967350117951	0.0	519.4546933853334	604.5646274000185	0.0	521.9465706946372	478.1234648457633	0.0	516.0024762480747	565.9562598833294	0.0	432.5440908119539	627.7682012803198	0.0	389.7774711762425	736.7569920288308	0.0	353.0380953532202	835.7683673804107	0.0	606.0329132001658	637.3456247717379	0.0	631.2120071827717	760.5944838289037	0.0	639.1915719463043	770.2744032539939	0.0
226	7.554435107376284	491.4969370143293	861.1409256176867	0.0	442.55486490131256	861.5512975223503	0.0	441.2243245663735	1046.203302959366	0.0	443.584226959056	1237.7405803796648	0.0	449.6279695090236	1300.4983224687983	0.0	422.55026270436963	1293.212109296329	0.0	448.98455862568767	1262.165703698015	0.0	540.0653271533124	866.8960104829157	0.0	532.5444145841085	1047.6030315390076	0.0	525.0626032989381	1218.4963322659019	0.0	510.4021238478449	1276.2918927704989	0.0	533.5269980573017	1269.5898592646397	0.0	518.9997962325226	1242.4299062442967	0.0	518.1438237049283	604.1415778437428	0.0	519.7111664918169	477.2340296035578	0.0	511.68895259314786	564.4399601639213	0.0	431.4144396152467	627.6404932581856	0.0	388.9552235954842	735.9052051513505	0.0	352.65413618259663	835.5009404617612	0.0	605.2372817402252	637.4699987939174	0.0	629.8391465934186	761.0853486342536	0.0	639.0751129746602	768.1274613450777	0.0
227	7.587861811391223	490.11651898277813	862.6889603120671	0.0	441.0548394023837	862.0985477511736	0.0	440.9083690290232	1047.3001686144087	0.0	443.22187928639136	1242.0252922647674	0.0	452.37984850120193	1305.4417063477822	0.0	423.9849329506604	1298.560177767493	0.0	447.6257491319734	1266.313327959049	0.0	540.0594972482544	867.9516063705224	0.0	531.2077644259261	1049.209756469875	0.0	525.005970822602	1217.975410354537	0.0	511.1392879895913	1277.8908350659462	0.0	534.4208434715837	1270.3462087103094	0.0	518.5558691341956	1241.2006667304772	0.0	516.1779673471979	603.6489747849972	0.0	517.9836672757453	475.4115787867773	0.0	507.06278201539214	563.2119697999843	0.0	429.0952826414978	627.7705934323272	0.0	387.20207388842067	734.7054876204928	0.0	352.033807378954	835.0866453158443	0.0	602.9899364025754	637.3616944055333	0.0	628.9564179938075	761.9136189877092	0.0	639.0011251149886	765.737426268503	0.0
228	7.621288515406162	488.8802958112689	863.972504782969	0.0	439.40703539395935	863.3970453005857	0.0	440.85584249908237	1048.080925123635	0.0	443.87299473437463	1245.7361763864308	0.0	453.5593882327449	1309.0070076494778	0.0	424.8284598859639	1303.205855142342	0.0	448.1441227471846	1269.7709966027546	0.0	539.1829182414409	868.9715204539373	0.0	529.4126417885054	1050.0586368945226	0.0	524.0965329338953	1217.6289795978746	0.0	510.7107851419321	1279.558541704758	0.0	534.1541696961858	1271.643423826936	0.0	518.1690413696628	1241.0393915976795	0.0	513.544638665707	603.5968213229933	0.0	515.9396466649864	473.9166980956374	0.0	502.25087994828925	562.7803064301668	0.0	426.1000703927446	627.7488109837258	0.0	384.184024949767	733.4539111263135	0.0	351.3566006930292	834.903187836098	0.0	600.0768087339544	636.8739096280427	0.0	628.6810835126871	762.1656595181596	0.0	639.0048340286233	772.5197800589265	0.0
229	7.654715219421101	488.17344628482175	865.346387807435	0.0	438.3938894041868	866.4224924908814	0.0	440.96057220975877	1050.115549111455	0.0	445.23646442492054	1248.230718850638	0.0	453.1001720765495	1310.7307303943605	0.0	425.40539680487956	1305.496203274103	0.0	450.4781477350638	1272.7663348148023	0.0	537.0178624459368	870.5994006205118	0.0	528.0320136861121	1050.5216403416625	0.0	522.837862722771	1216.5081804758067	0.0	509.8360509985173	1280.0309936898761	0.0	533.115343354156	1272.6722780825953	0.0	517.965269832953	1241.00151568768	0.0	510.69629689970554	603.8515928052775	0.0	513.072371037944	473.6157465383677	0.0	498.3063652989511	562.8013823325613	0.0	422.56691325923344	627.3330224223072	0.0	380.07617765911834	732.4039391011654	0.0	350.4368554517524	835.0547651432246	0.0	597.7113577667659	636.2119200549739	0.0	628.0094510928866	761.9570677156336	0.0	638.9479724338595	791.6606173961577	0.0
230	7.688141923436041	487.0868430935636	866.5845553907727	0.0	437.87973207281874	869.1760681436606	0.0	440.6460700193799	1052.3740188051497	0.0	446.43932017851614	1249.2732002191	0.0	452.61359211166695	1311.942958544573	0.0	426.0627412463301	1305.7804866429462	0.0	452.35255324332115	1274.5963417293444	0.0	533.9835209818765	871.9670359348888	0.0	527.3549166596738	1049.568644643616	0.0	522.0757172755178	1213.7726661113138	0.0	509.7722345053499	1279.3312306881667	0.0	532.872387839867	1274.0372109281154	0.0	517.4931141167165	1238.650545148588	0.0	507.94960979805535	603.4094923626974	0.0	509.99591109057206	473.0566561480399	0.0	495.8528315449803	562.2377875808596	0.0	418.71629466608664	626.4253830337154	0.0	375.70115825248354	731.7554806389722	0.0	348.7346624622968	835.121015130532	0.0	595.6052294663832	635.7695175622952	0.0	625.8601196104338	762.4015697494112	0.0	637.9751089712556	803.791408783934	0.0
